<svg id="Layer_1" data-name="Layer 1" xmlns="http://www.w3.org/2000/svg" viewBox="0 0 57.78 34.38"><defs><style>.cls-1{fill:#e0b280;fill-rule:evenodd;}</style></defs><title>Krunica</title><polygon class="cls-1" points="49.47 28.66 52.8 14.87 39.67 22.62 28.89 8.68 18.12 22.62 4.98 14.87 8.32 28.66 49.47 28.66 49.47 28.66"/><polygon class="cls-1" points="9.7 34.38 48.09 34.38 48.85 31.23 8.94 31.23 9.7 34.38 9.7 34.38"/><path class="cls-1" d="M927.21,334a3.07,3.07,0,1,1-3.07,3.07,3.07,3.07,0,0,1,3.07-3.07Z" transform="translate(-898.32 -334.01)"/><path class="cls-1" d="M953,340.93A3.07,3.07,0,1,1,950,344a3.06,3.06,0,0,1,3.07-3.07Z" transform="translate(-898.32 -334.01)"/><path class="cls-1" d="M901.38,340.93a3.07,3.07,0,1,1-3.06,3.07,3.06,3.06,0,0,1,3.06-3.07Z" transform="translate(-898.32 -334.01)"/></svg>