<svg id="Layer_1" data-name="Layer 1" xmlns="http://www.w3.org/2000/svg" viewBox="0 0 639.15 638.86"><defs><style>.cls-1{fill:#f3f3f3;}</style></defs><title>Face</title><path class="cls-1" d="M925,220.06c167.86,0,303.49,135.7,303.49,303.71,0,159.22-122.32,290-277.64,302.58-8.57,1.55-17.28,1.55-25.85,1.55a295.39,295.39,0,0,1-65.87-7.08C722.67,790.36,620.68,668.67,620.68,523.77c0-168,136.56-303.71,304.35-303.71m0-15.59c-176.43,0-320,143.36-320,319.3,0,148.17,105.46,279.62,250.66,312.34A323.83,323.83,0,0,0,925,843.34c9.49,0,19.12,0,28.54-1.41,162.27-13.17,290.6-152.85,290.6-318.16,0-175.94-143.21-319.3-319.14-319.3Z" transform="translate(-605.03 -204.47)"/><path class="cls-1" d="M959.52,460c4.67-5.53,14.09-9.5,27.48-9.5a158.49,158.49,0,0,1,41.51,5.81l11.82-63.75C1016,384.09,991,381.68,965,381.68s-46.32,4-62.75,13.47c-16.5,9.06-27.48,19.4-33.71,34.42-6.31,13.46-9.42,36-9.42,64.31V519H808.87v72.82h50.29V820.82A295.39,295.39,0,0,0,925,827.9c8.57,0,17.28,0,25.85-1.55V591.77h66.65V519H950.88V495.44C950.88,477.45,953.29,466.4,959.52,460Z" transform="translate(-605.03 -204.47)"/></svg>