<svg id="Layer_1" data-name="Layer 1" xmlns="http://www.w3.org/2000/svg" viewBox="0 0 838.17 838.36"><defs><style>.cls-1,.cls-2{fill:#f3f3f3;}.cls-2{fill-rule:evenodd;}</style></defs><title>Insta</title><path class="cls-1" d="M986.28,159.27C1206.65,159.27,1385,338,1385,558c0,220.36-178.38,398.74-398.75,398.74-220,0-398.55-178.38-398.55-398.74,0-220,178.57-398.75,398.55-398.75m0-20.43c-231.13,0-419,188-419,419.18s187.86,419.18,419,419.18,419.18-188,419.18-419.18-188-419.18-419.18-419.18Z" transform="translate(-567.29 -138.84)"/><path class="cls-2" d="M1145,342.84H828c-37.73,0-57.23,20.07-57.23,57.61V716.89c0,36.42,20.07,56.3,55.37,56.3H1145c36.8,0,57-19.88,57-56.68V399.14C1202,362.91,1181.77,342.84,1145,342.84ZM1110,391.72c42.74,0,42.74,0,42.74,42.74,0,41.61,0,41.61-42,41.61-42.36,0-42.36,0-42.36-42.36C1068.42,391.72,1068.42,391.72,1110,391.72ZM986.66,474.41c45,0,83.61,38.84,82.87,83.61-.37,46.08-38.65,84-84.35,83.24-45.34-.74-83.62-39.2-82.5-84C903.78,511.93,941.68,474.41,986.66,474.41Zm166.11,224.44c-.36,20.08-5.58,25.65-25.63,25.65H845.45c-19.7,0-25.27-5.57-25.27-25.65,0-52,.19-104.78-.74-157.18,0-14.88,4.09-18,17.83-17.66,19.69,1.68,20.07.75,17.84,20.08-7.63,66.33,38.46,131.17,104,144,67.64,12.83,135.28-27.68,153.85-92.52,5.58-20.27,7.25-42,3-61.88-1.48-7.63.36-8.92,7.06-8.92,29.72-2.42,29.72-2.78,29.72,28.06Z" transform="translate(-567.29 -138.84)"/></svg>