<svg id="Layer_1" data-name="Layer 1" xmlns="http://www.w3.org/2000/svg" viewBox="0 0 54.68 53.97"><defs><style>.cls-1{fill:#e1b380;}.cls-1,.cls-2{fill-rule:evenodd;}.cls-2{fill:#e1b381;}.cls-3{fill:#231f20;}.cls-4{fill:#fff;}</style></defs><title>Logo crni</title><path class="cls-1" d="M883.45,565.12H935.6a1.11,1.11,0,0,1,1.11,1.1v7.22a1.11,1.11,0,0,1-1.11,1.11H883.45a1.11,1.11,0,0,1-1.1-1.11v-7.22a1.11,1.11,0,0,1,1.1-1.1Z" transform="translate(-882.03 -520.58)"/><polygon class="cls-2" points="37.29 21.02 39.73 10.9 30.11 16.58 22.21 6.36 14.3 16.58 4.68 10.9 7.12 21.02 37.29 21.02 37.29 21.02"/><polygon class="cls-1" points="8.13 25.21 36.28 25.21 36.84 22.9 7.57 22.9 8.13 25.21 8.13 25.21"/><path class="cls-2" d="M904.24,520.58a2.25,2.25,0,1,1-2.25,2.24,2.24,2.24,0,0,1,2.25-2.24Z" transform="translate(-882.03 -520.58)"/><path class="cls-2" d="M923.17,525.65a2.25,2.25,0,1,1-2.25,2.25,2.25,2.25,0,0,1,2.25-2.25Z" transform="translate(-882.03 -520.58)"/><path class="cls-1" d="M885.3,525.65a2.25,2.25,0,1,1-2.25,2.25,2.25,2.25,0,0,1,2.25-2.25Z" transform="translate(-882.03 -520.58)"/><path class="cls-3" d="M928,560.08l-1.46,2.47q-.27.42-.54.42h0a.66.66,0,0,1-.3-.09.55.55,0,0,1-.18-.15,1,1,0,0,0-.11-.15,1.2,1.2,0,0,0-.85-.21h-5.78a1.84,1.84,0,0,1-.69-.11.47.47,0,0,1-.28-.48c0-.2,0-.33.13-.39a2.32,2.32,0,0,1,.45-.22.94.94,0,0,0,.44-.32,1.39,1.39,0,0,0,.09-.34c0-.14,0-.3,0-.46s0-.29,0-.38c0-.9,0-1.56,0-2v-2.2a14.61,14.61,0,0,0-.16-3.18,1.1,1.1,0,0,0-.43-.28,2.15,2.15,0,0,1-.46-.23.54.54,0,0,1-.13-.42c0-.34.28-.52.84-.52h3.52a1.11,1.11,0,0,1,.53.1c.13.06.19.2.19.42s0,.34-.13.4a1.85,1.85,0,0,1-.45.22.85.85,0,0,0-.42.31,1.92,1.92,0,0,0-.13.85c0,.26,0,.65,0,1.17s0,.91,0,1.16v3c0,.18,0,.33,0,.46a6.53,6.53,0,0,0,.07,1.21.63.63,0,0,0,.39.47,3.37,3.37,0,0,0,1.09.12,7.28,7.28,0,0,0,1.86-.2,3.85,3.85,0,0,0,1-.41c.2-.13.45-.33.77-.58a1.65,1.65,0,0,1,.77-.41.55.55,0,0,1,.35.12.37.37,0,0,1,.16.33.83.83,0,0,1-.16.46Z" transform="translate(-882.03 -520.58)"/><path class="cls-3" d="M909.14,553.8l0,2.29a3.39,3.39,0,0,0,.12,1,.82.82,0,0,0,.44.49,2.39,2.39,0,0,0,1,.15,3.25,3.25,0,0,0,1.42-.31,2.24,2.24,0,0,0,1-.9,2.61,2.61,0,0,0,.37-1.42,3,3,0,0,0-.38-1.47,2.84,2.84,0,0,0-1-1.07,2.59,2.59,0,0,0-1.4-.4,1.31,1.31,0,0,0-1.54,1.54v.06Zm5,4.69,1.61,1.94a2,2,0,0,0,.79.64,2.35,2.35,0,0,1,.51.27.47.47,0,0,1,.18.42c0,.41-.25.62-.74.62h-3.72c-.44,0-.68-.18-.71-.54a.82.82,0,0,1,.11-.39.5.5,0,0,1,.27-.25q.42-.13.42-.27a.57.57,0,0,0-.26-.45l-1.28-1.38a8.14,8.14,0,0,1-1,.08,8.86,8.86,0,0,1-1.07-.08,9.79,9.79,0,0,0-.05,1.1c0,.55.12.85.38.92a2.06,2.06,0,0,1,.56.21.49.49,0,0,1,.21.43c0,.41-.29.62-.85.62H906.2a1.84,1.84,0,0,1-.69-.11.47.47,0,0,1-.28-.48.45.45,0,0,1,.13-.38,3.51,3.51,0,0,1,.46-.24,1,1,0,0,0,.43-.31,8.19,8.19,0,0,0,.16-2.27v-3c0-.17,0-.41,0-.74v-.74a5.11,5.11,0,0,0-.15-1.7,1,1,0,0,0-.41-.27,1.59,1.59,0,0,1-.46-.24.51.51,0,0,1-.15-.42c0-.39.32-.59,1-.59h3.32a15.48,15.48,0,0,1,2.77.22,6.52,6.52,0,0,1,2.26.82,5,5,0,0,1,1.16.93,3.87,3.87,0,0,1,.78,1.2,3.67,3.67,0,0,1,.28,1.45c0,1.51-.88,2.51-2.63,3Z" transform="translate(-882.03 -520.58)"/><path class="cls-3" d="M904.73,560.05l-1.41,2.57a.58.58,0,0,1-.5.38.85.85,0,0,1-.53-.25,1.4,1.4,0,0,0-.44-.3,3.7,3.7,0,0,0-.87-.07h-6.6a1.84,1.84,0,0,1-.69-.11.47.47,0,0,1-.28-.48c0-.2,0-.33.13-.39a2.32,2.32,0,0,1,.45-.22.94.94,0,0,0,.44-.32,1.36,1.36,0,0,0,.09-.35c0-.13,0-.29,0-.45s0-.29,0-.38c0-.9,0-1.57,0-2v-2.13c0-.4,0-.71,0-.91s0-.45,0-.84,0-.69,0-.94a1.7,1.7,0,0,0-.09-.49.89.89,0,0,0-.42-.27,2.1,2.1,0,0,1-.46-.24c-.1-.07-.14-.21-.14-.42,0-.39.32-.59,1-.59h5.2a4.18,4.18,0,0,0,.77-.05,1.21,1.21,0,0,0,.56-.24,1.39,1.39,0,0,1,.53-.24.61.61,0,0,1,.48.33l1.48,2.2a.78.78,0,0,1,.14.44.6.6,0,0,1-.11.37.36.36,0,0,1-.31.16,1.63,1.63,0,0,1-.6-.33c-.31-.21-.6-.41-.88-.57a5.68,5.68,0,0,0-1.17-.48,5.94,5.94,0,0,0-1.7-.22,3.07,3.07,0,0,0-.86.09.61.61,0,0,0-.4.33,1.6,1.6,0,0,0-.12.7v.33a3.34,3.34,0,0,0,.07.82.51.51,0,0,0,.23.36,1,1,0,0,0,.5.1,2.27,2.27,0,0,0,.59-.06.77.77,0,0,0,.39-.3,1.25,1.25,0,0,1,.12-.17l.14-.17a.94.94,0,0,1,.16-.14.35.35,0,0,1,.17,0,.64.64,0,0,1,.53.36l1.36,2.14a1,1,0,0,1,.15.33.8.8,0,0,1-.13.46.44.44,0,0,1-.38.2,1.84,1.84,0,0,1-.78-.38,8,8,0,0,0-1-.58,2.26,2.26,0,0,0-1-.22c-.59,0-.93.15-1,.43a2.78,2.78,0,0,0-.1.85c0,.36,0,.91,0,1.64a4.26,4.26,0,0,0,.09.89.68.68,0,0,0,.34.42,1.92,1.92,0,0,0,.79.13h1.83a5,5,0,0,0,1.57-.26,4.62,4.62,0,0,0,1.17-.61c.35-.25.6-.44.77-.58a.78.78,0,0,1,.44-.21.43.43,0,0,1,.32.16.53.53,0,0,1,.14.38,1,1,0,0,1-.1.45Z" transform="translate(-882.03 -520.58)"/><path class="cls-3" d="M889.62,555.16a2.87,2.87,0,0,0-.38-1.44,2.94,2.94,0,0,0-1-1.07,2.6,2.6,0,0,0-1.37-.4.88.88,0,0,0-.64.2.69.69,0,0,0-.22.46,7.14,7.14,0,0,0,0,.86c0,.86,0,1.49,0,1.9A6.33,6.33,0,0,0,886,557c.08.36.48.54,1.19.54a2.38,2.38,0,0,0,1.71-.66,2.3,2.3,0,0,0,.69-1.72Zm-3.49,7.22H883a1.92,1.92,0,0,1-.69-.11.5.5,0,0,1-.28-.48.48.48,0,0,1,.13-.38,3.81,3.81,0,0,1,.47-.24.87.87,0,0,0,.42-.31,8,8,0,0,0,.17-2.27V553.8a5,5,0,0,0-.13-1.37.78.78,0,0,0-.42-.36,4,4,0,0,1-.48-.26.44.44,0,0,1-.12-.37c0-.45.52-.68,1.58-.68H884a27.22,27.22,0,0,1,4.37.25,6.88,6.88,0,0,1,2.19.77,4.85,4.85,0,0,1,1.64,1.51,4.13,4.13,0,0,1,.67,2.19,3.11,3.11,0,0,1-.74,2.23,3.58,3.58,0,0,1-1.85,1,11.35,11.35,0,0,1-2.53.25h-.47a7.9,7.9,0,0,0-.9,0c-.16,0-.26.08-.3.17a1.58,1.58,0,0,0-.05.48v.47c0,.61.16,1,.49,1.05s.58.32.58.59a.47.47,0,0,1-.26.49,1.89,1.89,0,0,1-.7.1Z" transform="translate(-882.03 -520.58)"/><path class="cls-3" d="M935.54,558.2h-3.33q-.84,0-.84-.57a.49.49,0,0,1,.35-.5l.33-.17a.33.33,0,0,0,.13-.21,1.61,1.61,0,0,0-.58-1.38,2.57,2.57,0,0,0-1.53-.42h-.51c-.23,0-.41,0-.52,0a2.26,2.26,0,0,0-1.43.45,1.55,1.55,0,0,0-.58,1.31.29.29,0,0,0,.08.24,2.17,2.17,0,0,0,.3.2,1.78,1.78,0,0,1,.31.23.45.45,0,0,1,.1.3c0,.37-.26.55-.78.55h-2.66a.69.69,0,0,1-.46-.12,1.25,1.25,0,0,1-.25-.47c0-.31.29-.55.82-.72a1.34,1.34,0,0,0,.57-.51,5.42,5.42,0,0,0,.49-.9c.15-.35.28-.7.41-1.07s.23-.66.29-.86.25-.6.46-1.08l.45-1.08c.12-.29.39-.88.8-1.78s.7-1.57.86-2a2.74,2.74,0,0,1,.31-.66.63.63,0,0,1,.47-.24,7.42,7.42,0,0,0,.77,0l.56,0a.88.88,0,0,1,.62.21,2.14,2.14,0,0,1,.43.82l.59,1.54.63,1.82.74,2,.74,2.16c0,.1.1.27.18.5a5.43,5.43,0,0,0,.24.59,1.31,1.31,0,0,0,.22.38,1.13,1.13,0,0,0,.45.31,2.29,2.29,0,0,1,.48.29.54.54,0,0,1,.16.44.44.44,0,0,1-.24.45,1.6,1.6,0,0,1-.63.1Zm-5.78-8.66q-.36.76-.87,2a5.83,5.83,0,0,0-.5,1.59.36.36,0,0,0,.28.35,3.46,3.46,0,0,0,1,.09h.16c.78,0,1.17-.16,1.17-.5a4.77,4.77,0,0,0-.38-1.35c-.25-.68-.52-1.4-.82-2.16Z" transform="translate(-882.03 -520.58)"/><path class="cls-4" d="M886.65,569.35v1c0,.12,0,.3,0,.54s0,.43,0,.58a1,1,0,0,0,.06.41.36.36,0,0,0,.21.15,1.7,1.7,0,0,1,.23.11.22.22,0,0,1,.07.19.22.22,0,0,1-.14.23.88.88,0,0,1-.35.06h-1.6a.88.88,0,0,1-.35-.06c-.09,0-.13-.11-.14-.23a.22.22,0,0,1,.07-.19,1,1,0,0,1,.23-.11.36.36,0,0,0,.21-.15.38.38,0,0,0,.05-.16,1.55,1.55,0,0,0,0-.22,1.36,1.36,0,0,0,0-.18c0-.44,0-.76,0-1v-1c0-.21,0-.53,0-1a1.42,1.42,0,0,0,0-.19,1.55,1.55,0,0,0,0-.22.5.5,0,0,0-.05-.16.35.35,0,0,0-.21-.13,1,1,0,0,1-.23-.12s-.07-.1-.07-.2.16-.29.49-.29h1.6a.88.88,0,0,1,.35.06.24.24,0,0,1,.14.23c0,.15-.09.25-.28.32a.4.4,0,0,0-.23.14.52.52,0,0,0-.07.23v.33c0,.43,0,.75,0,1Zm7.39,0-1.45,2.85-.09.17a.71.71,0,0,1-.11.17.22.22,0,0,1-.15.06l-.12,0-.1-.1a.57.57,0,0,1-.08-.13l-.06-.12-1.41-3-.71,2.28a1.16,1.16,0,0,0-.06.34.15.15,0,0,0,0,.13.56.56,0,0,0,.14.1.65.65,0,0,1,.15.12.21.21,0,0,1,.05.15c0,.16-.12.25-.36.25h-1.29a.25.25,0,0,1-.18-.07.24.24,0,0,1-.07-.18.07.07,0,0,1,0,0c0-.06.06-.13.18-.2l.29-.21a.81.81,0,0,0,.18-.35l1-3.28a1.56,1.56,0,0,0,.07-.37.23.23,0,0,0-.06-.16.83.83,0,0,0-.17-.12.62.62,0,0,1-.17-.12.2.2,0,0,1-.05-.15.26.26,0,0,1,.12-.21.55.55,0,0,1,.34-.1h1.46c.24,0,.37.09.39.25a.29.29,0,0,1-.05.17.65.65,0,0,1-.15.12l-.15.11a.17.17,0,0,0,0,.13.67.67,0,0,0,.1.29l1,1.92a.39.39,0,0,1,0,.09l.06.08a.09.09,0,0,0,.08,0s0,0,.07,0l.06-.09s0-.08,0-.09l.93-1.91a.6.6,0,0,0,.07-.26.16.16,0,0,0,0-.14.71.71,0,0,0-.17-.11.83.83,0,0,1-.17-.12.24.24,0,0,1-.06-.18.2.2,0,0,1,.12-.19.53.53,0,0,1,.26-.07h1.51a.79.79,0,0,1,.29,0,.22.22,0,0,1,.12.2.24.24,0,0,1-.06.18l-.18.13a.7.7,0,0,0-.18.12.21.21,0,0,0-.06.16.37.37,0,0,0,0,.11s0,.08,0,.14a.68.68,0,0,0,0,.12l.89,3.27a.88.88,0,0,0,.14.32.78.78,0,0,0,.27.18c.17.07.26.17.26.3a.27.27,0,0,1-.1.21.41.41,0,0,1-.25.08h-1.9a.36.36,0,0,1-.23-.08.27.27,0,0,1-.09-.21.31.31,0,0,1,.24-.3c.14,0,.22-.12.22-.23a3.53,3.53,0,0,0-.09-.43l-.5-2Zm5.7,3.27h-1.59a.88.88,0,0,1-.35-.06c-.09,0-.13-.11-.14-.23s0-.15.07-.18l.23-.12c.11,0,.19-.09.22-.15a4,4,0,0,0,.08-1.09v-2.31a2,2,0,0,0-.07-.67.34.34,0,0,0-.21-.17,1.28,1.28,0,0,1-.24-.12.22.22,0,0,1-.06-.18c0-.22.26-.33.8-.33h.17a14.82,14.82,0,0,1,2.22.12,3.76,3.76,0,0,1,1.1.37,2.45,2.45,0,0,1,.83.73,1.92,1.92,0,0,1,.35,1.06,1.46,1.46,0,0,1-.38,1.08,1.81,1.81,0,0,1-.94.49,6.12,6.12,0,0,1-1.28.12h-.24l-.45,0a.18.18,0,0,0-.15.08.62.62,0,0,0,0,.24v.22c0,.29.08.46.25.51s.29.15.29.28,0,.21-.13.24a1,1,0,0,1-.35,0Zm1.76-3.49a1.28,1.28,0,0,0-.19-.69,1.34,1.34,0,0,0-.51-.52,1.38,1.38,0,0,0-.69-.19.45.45,0,0,0-.32.09.37.37,0,0,0-.12.23,3.52,3.52,0,0,0,0,.41c0,.42,0,.72,0,.92a2.7,2.7,0,0,0,.05.64c0,.18.24.26.6.26a1.19,1.19,0,0,0,.86-.32,1,1,0,0,0,.35-.83Zm8.42,2.36-.72,1.24c-.07.12-.15.19-.25.19a.42.42,0,0,1-.27-.13.67.67,0,0,0-.22-.14,2.41,2.41,0,0,0-.45,0h-3.34a.88.88,0,0,1-.35-.06c-.09,0-.13-.11-.14-.23a.24.24,0,0,1,.06-.19l.24-.1a.5.5,0,0,0,.22-.16.62.62,0,0,0,0-.16c0-.07,0-.14,0-.22v-.18c0-.44,0-.76,0-1v-1c0-.19,0-.34,0-.44s0-.21,0-.4,0-.34,0-.46a.72.72,0,0,0,0-.23.41.41,0,0,0-.22-.13,1.54,1.54,0,0,1-.23-.12s-.07-.1-.07-.2.16-.29.49-.29h2.64a2.3,2.3,0,0,0,.39,0,.77.77,0,0,0,.28-.12.61.61,0,0,1,.27-.11.3.3,0,0,1,.24.15l.75,1.07a.37.37,0,0,1,.08.21.28.28,0,0,1-.06.18.21.21,0,0,1-.16.08.86.86,0,0,1-.3-.16l-.45-.28a3.3,3.3,0,0,0-.59-.23,3.26,3.26,0,0,0-.86-.11,1.51,1.51,0,0,0-.44,0,.28.28,0,0,0-.2.16.74.74,0,0,0-.06.34v.15a2,2,0,0,0,0,.4.25.25,0,0,0,.12.17.43.43,0,0,0,.25,0,1.15,1.15,0,0,0,.3,0,.43.43,0,0,0,.2-.14l.06-.08.07-.08.08-.07a.15.15,0,0,1,.09,0,.29.29,0,0,1,.26.17l.7,1a.42.42,0,0,1,.07.15.32.32,0,0,1-.07.22.21.21,0,0,1-.19.1.92.92,0,0,1-.39-.18,3.89,3.89,0,0,0-.5-.28,1.25,1.25,0,0,0-.53-.11c-.3,0-.48.07-.53.21a1.47,1.47,0,0,0-.05.41c0,.17,0,.44,0,.79a1.43,1.43,0,0,0,0,.43.28.28,0,0,0,.17.2.92.92,0,0,0,.4.07h.92a2.62,2.62,0,0,0,.8-.13,2.16,2.16,0,0,0,.59-.29l.39-.28a.38.38,0,0,1,.22-.1.22.22,0,0,1,.17.07.32.32,0,0,1,.07.19.54.54,0,0,1-.05.21Zm5.52-.75.82.93a1,1,0,0,0,.39.31l.26.13a.25.25,0,0,1,.09.21c0,.2-.12.3-.37.3h-1.88c-.23,0-.35-.09-.36-.26a.41.41,0,0,1,.05-.19.27.27,0,0,1,.14-.12c.14-.05.21-.09.21-.13a.26.26,0,0,0-.13-.22l-.65-.67a3.37,3.37,0,0,1-.52,0,3.84,3.84,0,0,1-.55,0,4.7,4.7,0,0,0,0,.54c0,.26.06.41.19.44a1,1,0,0,1,.28.1.22.22,0,0,1,.11.21c0,.2-.15.3-.43.3h-1.65a.82.82,0,0,1-.35-.06.24.24,0,0,1-.15-.23.22.22,0,0,1,.07-.18l.24-.12c.11,0,.18-.09.21-.15a3.58,3.58,0,0,0,.08-1.09v-2.18a2.29,2.29,0,0,0-.08-.82.4.4,0,0,0-.21-.13,1,1,0,0,1-.23-.12.25.25,0,0,1-.08-.2c0-.19.17-.29.5-.29h1.68a8.37,8.37,0,0,1,1.4.11,3.64,3.64,0,0,1,1.15.39,3,3,0,0,1,.59.45,1.89,1.89,0,0,1,.39.59,1.74,1.74,0,0,1,.14.69c0,.73-.44,1.22-1.33,1.46Zm-2.53-2.26v1.1a1.57,1.57,0,0,0,.06.5.4.4,0,0,0,.22.24,1.24,1.24,0,0,0,.49.07,1.66,1.66,0,0,0,.72-.15,1.14,1.14,0,0,0,.51-.43,1.27,1.27,0,0,0,.18-.69,1.41,1.41,0,0,0-.7-1.22,1.39,1.39,0,0,0-.72-.2.82.82,0,0,0-.59.18.75.75,0,0,0-.18.57v0Zm7.13.84v1c0,.12,0,.3,0,.54s0,.43,0,.58a.81.81,0,0,0,.07.41.36.36,0,0,0,.21.15l.23.11a.26.26,0,0,1,.07.19.22.22,0,0,1-.14.23.9.9,0,0,1-.36.06h-1.59a.85.85,0,0,1-.35-.06.24.24,0,0,1-.15-.23.26.26,0,0,1,.07-.19,1.42,1.42,0,0,1,.24-.11.36.36,0,0,0,.21-.15.6.6,0,0,0,0-.16c0-.07,0-.14,0-.22a1.36,1.36,0,0,0,0-.18c0-.44,0-.76,0-1v-1c0-.21,0-.53,0-1a1.42,1.42,0,0,0,0-.19,1.5,1.5,0,0,0,0-.22.34.34,0,0,0,0-.16.35.35,0,0,0-.21-.13.79.79,0,0,1-.23-.12.22.22,0,0,1-.08-.2c0-.19.17-.29.5-.29h1.59a.9.9,0,0,1,.36.06.26.26,0,0,1,.14.23c0,.15-.1.25-.28.32a.4.4,0,0,0-.23.14.52.52,0,0,0-.07.23c0,.1,0,.21,0,.33,0,.43,0,.75,0,1Zm7.91,3.3h-1.69c-.28,0-.42-.09-.42-.28a.23.23,0,0,1,.17-.24l.17-.08a.15.15,0,0,0,.06-.1.75.75,0,0,0-.29-.67,1.4,1.4,0,0,0-.77-.2h-.53a1.23,1.23,0,0,0-.72.22.73.73,0,0,0-.3.63.14.14,0,0,0,0,.12l.15.1a.37.37,0,0,1,.15.11.17.17,0,0,1,.06.14c0,.18-.14.27-.4.27h-1.35a.35.35,0,0,1-.23-.06.66.66,0,0,1-.13-.23c0-.15.15-.26.42-.35a.63.63,0,0,0,.29-.24,3,3,0,0,0,.25-.44c.07-.16.14-.34.2-.51s.12-.32.15-.42l.23-.52c.11-.23.18-.4.23-.52s.2-.43.41-.86.35-.76.43-1a1.33,1.33,0,0,1,.16-.32c0-.07.12-.1.24-.12h.39l.28,0a.51.51,0,0,1,.32.1,1.1,1.1,0,0,1,.21.4l.3.74.32.88.38,1,.37,1,.09.24.12.29a.7.7,0,0,0,.12.18.59.59,0,0,0,.22.15,1.3,1.3,0,0,1,.25.14.26.26,0,0,1,.08.21.21.21,0,0,1-.12.22.93.93,0,0,1-.32,0ZM925,568.47c-.12.24-.27.56-.44.95a2.58,2.58,0,0,0-.25.77.17.17,0,0,0,.13.17,1.92,1.92,0,0,0,.49,0H925q.6,0,.6-.24a2.66,2.66,0,0,0-.19-.65c-.13-.33-.27-.68-.42-1Zm9.42,3.07-.73,1.19c-.1.13-.19.2-.28.2h0a.33.33,0,0,1-.15-.05.22.22,0,0,1-.09-.07l0-.07a.66.66,0,0,0-.44-.1h-2.93a.88.88,0,0,1-.35-.06.24.24,0,0,1-.14-.23.21.21,0,0,1,.07-.19l.23-.1a.5.5,0,0,0,.22-.16.62.62,0,0,0,0-.16,1.5,1.5,0,0,0,0-.22.87.87,0,0,1,0-.18c0-.44,0-.76,0-1v-1.06a7,7,0,0,0-.08-1.53.49.49,0,0,0-.22-.14,1.25,1.25,0,0,1-.23-.11.29.29,0,0,1-.07-.21c0-.16.14-.25.43-.25h1.78a.62.62,0,0,1,.27,0c.07,0,.1.1.1.2s0,.17-.07.2l-.22.11a.39.39,0,0,0-.22.15.89.89,0,0,0-.07.4c0,.13,0,.32,0,.57v1.86a1.36,1.36,0,0,1,0,.16V571a2.64,2.64,0,0,0,0,.59.28.28,0,0,0,.19.22,1.76,1.76,0,0,0,.55.06,3.46,3.46,0,0,0,.94-.1,1.92,1.92,0,0,0,.52-.19l.39-.28a.89.89,0,0,1,.39-.2.35.35,0,0,1,.18,0,.21.21,0,0,1,.08.16.37.37,0,0,1-.09.23Z" transform="translate(-882.03 -520.58)"/></svg>