<svg id="Layer_1" data-name="Layer 1" xmlns="http://www.w3.org/2000/svg" viewBox="0 0 54.68 53.97"><defs><style>.cls-1{fill:#e0b280;fill-rule:evenodd;}.cls-2{fill:#fff;}</style></defs><title>Logo beli</title><path class="cls-1" d="M887.87,457.12H940a1.11,1.11,0,0,1,1.11,1.1v7.22a1.11,1.11,0,0,1-1.11,1.11H887.87a1.11,1.11,0,0,1-1.11-1.11v-7.22a1.11,1.11,0,0,1,1.11-1.1Z" transform="translate(-886.44 -412.58)"/><polygon class="cls-1" points="37.29 21.02 39.73 10.9 30.11 16.58 22.21 6.36 14.3 16.58 4.68 10.9 7.12 21.02 37.29 21.02 37.29 21.02"/><polygon class="cls-1" points="8.13 25.21 36.28 25.21 36.84 22.9 7.57 22.9 8.13 25.21 8.13 25.21"/><path class="cls-1" d="M908.65,412.58a2.25,2.25,0,1,1-2.25,2.24,2.24,2.24,0,0,1,2.25-2.24Z" transform="translate(-886.44 -412.58)"/><path class="cls-1" d="M927.58,417.65a2.25,2.25,0,1,1-2.24,2.25,2.25,2.25,0,0,1,2.24-2.25Z" transform="translate(-886.44 -412.58)"/><path class="cls-1" d="M889.71,417.65a2.25,2.25,0,1,1-2.24,2.25,2.25,2.25,0,0,1,2.24-2.25Z" transform="translate(-886.44 -412.58)"/><path class="cls-2" d="M932.41,452.08,931,454.55c-.19.28-.37.42-.55.42h0a.67.67,0,0,1-.31-.09.68.68,0,0,1-.18-.15l-.1-.15a1.23,1.23,0,0,0-.86-.21h-5.78a1.84,1.84,0,0,1-.69-.11.49.49,0,0,1-.28-.48c0-.2,0-.33.13-.39a2.5,2.5,0,0,1,.46-.22.91.91,0,0,0,.43-.32,1.39,1.39,0,0,0,.09-.34c0-.14,0-.3,0-.46s0-.29,0-.38c0-.9,0-1.56,0-2v-2.2a14.61,14.61,0,0,0-.16-3.18,1,1,0,0,0-.43-.28,1.82,1.82,0,0,1-.45-.23.54.54,0,0,1-.14-.42c0-.34.28-.52.84-.52h3.52a1.11,1.11,0,0,1,.53.1c.13.06.2.2.2.42a.49.49,0,0,1-.13.4,2.34,2.34,0,0,1-.45.22.84.84,0,0,0-.43.31,1.92,1.92,0,0,0-.13.85c0,.26,0,.65,0,1.17s0,.91,0,1.16v2.7s0,.15,0,.33,0,.33,0,.46a5.54,5.54,0,0,0,.08,1.21.62.62,0,0,0,.38.47,3.41,3.41,0,0,0,1.09.12,7.28,7.28,0,0,0,1.86-.2,3.85,3.85,0,0,0,1-.41c.2-.13.46-.33.77-.58a1.7,1.7,0,0,1,.77-.41.6.6,0,0,1,.36.12.39.39,0,0,1,.15.33.83.83,0,0,1-.16.46Z" transform="translate(-886.44 -412.58)"/><path class="cls-2" d="M913.55,445.8l0,2.29a3.39,3.39,0,0,0,.12,1,.82.82,0,0,0,.44.49,2.43,2.43,0,0,0,1,.15,3.25,3.25,0,0,0,1.42-.31,2.26,2.26,0,0,0,1-.9,2.7,2.7,0,0,0,.36-1.42,3.08,3.08,0,0,0-.37-1.47,2.94,2.94,0,0,0-1-1.07,2.59,2.59,0,0,0-1.4-.4,1.31,1.31,0,0,0-1.54,1.54v.06Zm5,4.69,1.61,1.94a2.1,2.1,0,0,0,.79.64,2.13,2.13,0,0,1,.51.27.47.47,0,0,1,.18.42c0,.41-.25.62-.74.62h-3.72c-.44,0-.67-.18-.7-.54a.81.81,0,0,1,.1-.39.5.5,0,0,1,.27-.25q.42-.13.42-.27a.58.58,0,0,0-.25-.45l-1.29-1.38a8.14,8.14,0,0,1-1,.08,9,9,0,0,1-1.07-.08c0,.35,0,.72,0,1.1,0,.55.13.85.38.92a1.94,1.94,0,0,1,.56.21.47.47,0,0,1,.21.43c0,.41-.28.62-.85.62h-3.26a1.84,1.84,0,0,1-.69-.11.49.49,0,0,1-.28-.48.45.45,0,0,1,.13-.38,3.51,3.51,0,0,1,.46-.24.86.86,0,0,0,.43-.31,8.19,8.19,0,0,0,.16-2.27v-3.78c0-.33,0-.57,0-.74a5.11,5.11,0,0,0-.15-1.7,1,1,0,0,0-.41-.27,1.74,1.74,0,0,1-.46-.24.51.51,0,0,1-.15-.42c0-.39.32-.59,1-.59h3.33a15.44,15.44,0,0,1,2.76.22,6.44,6.44,0,0,1,2.26.82,5,5,0,0,1,1.16.93,3.87,3.87,0,0,1,.78,1.2,3.67,3.67,0,0,1,.28,1.45c0,1.51-.88,2.51-2.63,3Z" transform="translate(-886.44 -412.58)"/><path class="cls-2" d="M909.14,452.05l-1.41,2.57c-.13.25-.29.38-.49.38a.87.87,0,0,1-.54-.25,1.52,1.52,0,0,0-.43-.3,3.8,3.8,0,0,0-.88-.07h-6.6a1.84,1.84,0,0,1-.69-.11.49.49,0,0,1-.28-.48c0-.2,0-.33.13-.39a2.5,2.5,0,0,1,.46-.22.91.91,0,0,0,.43-.32,1.36,1.36,0,0,0,.09-.35c0-.13,0-.29,0-.45s0-.29,0-.38c0-.9,0-1.57,0-2v-2.13c0-.4,0-.71,0-.91s0-.45,0-.84,0-.69,0-.94a1.61,1.61,0,0,0-.1-.49.89.89,0,0,0-.42-.27,2.1,2.1,0,0,1-.46-.24.51.51,0,0,1-.14-.42c0-.39.32-.59,1-.59H904a4.18,4.18,0,0,0,.77-.05,1.25,1.25,0,0,0,.57-.24,1.37,1.37,0,0,1,.52-.24.61.61,0,0,1,.48.33l1.48,2.2a.8.8,0,0,1,.15.44.61.61,0,0,1-.12.37.36.36,0,0,1-.31.16,1.63,1.63,0,0,1-.6-.33c-.31-.21-.6-.41-.88-.57a5.68,5.68,0,0,0-1.17-.48,5.94,5.94,0,0,0-1.7-.22,3.07,3.07,0,0,0-.86.09.61.61,0,0,0-.4.33,1.6,1.6,0,0,0-.12.7v.33a3.34,3.34,0,0,0,.07.82.54.54,0,0,0,.23.36,1,1,0,0,0,.5.1,2.22,2.22,0,0,0,.59-.06.77.77,0,0,0,.39-.3c0-.07.09-.12.12-.17l.14-.17a.7.7,0,0,1,.17-.14.29.29,0,0,1,.16,0,.63.63,0,0,1,.53.36l1.36,2.14a.72.72,0,0,1,.15.33.8.8,0,0,1-.13.46.44.44,0,0,1-.38.2,1.84,1.84,0,0,1-.78-.38,8,8,0,0,0-1-.58,2.22,2.22,0,0,0-1-.22c-.6,0-.94.15-1,.43a2.78,2.78,0,0,0-.1.85c0,.36,0,.91,0,1.64a3.56,3.56,0,0,0,.1.89.64.64,0,0,0,.33.42,2,2,0,0,0,.79.13h1.83a5,5,0,0,0,1.57-.26,4.87,4.87,0,0,0,1.18-.61c.34-.25.6-.44.77-.58a.74.74,0,0,1,.43-.21.44.44,0,0,1,.33.16.57.57,0,0,1,.13.38,1,1,0,0,1-.1.45Z" transform="translate(-886.44 -412.58)"/><path class="cls-2" d="M894,447.16a2.87,2.87,0,0,0-.38-1.44,2.94,2.94,0,0,0-1-1.07,2.6,2.6,0,0,0-1.37-.4.88.88,0,0,0-.64.2.74.74,0,0,0-.22.46,5.85,5.85,0,0,0,0,.86c0,.86,0,1.49,0,1.9a7.1,7.1,0,0,0,.1,1.33c.08.36.48.54,1.19.54a2.38,2.38,0,0,0,1.71-.66,2.3,2.3,0,0,0,.69-1.72Zm-3.49,7.22h-3.13a1.92,1.92,0,0,1-.69-.11.5.5,0,0,1-.28-.48.45.45,0,0,1,.14-.38,2.94,2.94,0,0,1,.46-.24.87.87,0,0,0,.42-.31,8,8,0,0,0,.17-2.27V445.8a4.62,4.62,0,0,0-.13-1.37.78.78,0,0,0-.42-.36,5.06,5.06,0,0,1-.48-.26.44.44,0,0,1-.12-.37c0-.45.52-.68,1.58-.68h.34a27.45,27.45,0,0,1,4.38.25,6.91,6.91,0,0,1,2.18.77,4.76,4.76,0,0,1,1.64,1.51,4.13,4.13,0,0,1,.67,2.19,3.07,3.07,0,0,1-.74,2.23,3.58,3.58,0,0,1-1.85,1,11.32,11.32,0,0,1-2.52.25h-.48a7.9,7.9,0,0,0-.9,0c-.16,0-.26.08-.29.17a1.25,1.25,0,0,0-.06.48v.47c0,.61.16,1,.49,1.05s.58.32.58.59a.47.47,0,0,1-.26.49,1.89,1.89,0,0,1-.7.1Z" transform="translate(-886.44 -412.58)"/><path class="cls-2" d="M940,450.2h-3.33q-.84,0-.84-.57a.49.49,0,0,1,.35-.5,2.38,2.38,0,0,0,.33-.17.3.3,0,0,0,.13-.21,1.61,1.61,0,0,0-.58-1.38,2.57,2.57,0,0,0-1.53-.42H934c-.23,0-.41,0-.52,0a2.28,2.28,0,0,0-1.43.45,1.55,1.55,0,0,0-.58,1.31.33.33,0,0,0,.08.24,2.17,2.17,0,0,0,.3.2,1.78,1.78,0,0,1,.31.23.4.4,0,0,1,.1.3c0,.37-.26.55-.77.55h-2.67a.69.69,0,0,1-.46-.12,1.25,1.25,0,0,1-.25-.47c0-.31.29-.55.82-.72a1.34,1.34,0,0,0,.57-.51,5.42,5.42,0,0,0,.49-.9c.15-.35.29-.7.41-1.07s.23-.66.29-.86.26-.6.46-1.08l.45-1.08c.12-.29.39-.88.8-1.78s.7-1.57.86-2a3.2,3.2,0,0,1,.31-.66.63.63,0,0,1,.47-.24,7.33,7.33,0,0,0,.77,0l.56,0a.85.85,0,0,1,.62.21,2,2,0,0,1,.43.82l.59,1.54.63,1.82.74,2,.74,2.16c0,.1.1.27.18.5s.17.44.24.59a1.59,1.59,0,0,0,.22.38,1.13,1.13,0,0,0,.45.31,2.29,2.29,0,0,1,.48.29.54.54,0,0,1,.16.44.44.44,0,0,1-.24.45,1.6,1.6,0,0,1-.63.1Zm-5.78-8.66q-.36.76-.87,2a5.67,5.67,0,0,0-.49,1.59.37.37,0,0,0,.27.35,3.46,3.46,0,0,0,1,.09h.16c.78,0,1.17-.16,1.17-.5a5,5,0,0,0-.37-1.35c-.26-.68-.53-1.4-.83-2.16Z" transform="translate(-886.44 -412.58)"/><path class="cls-2" d="M891.06,461.35v1c0,.12,0,.3,0,.54s0,.43,0,.58a1,1,0,0,0,.06.41.39.39,0,0,0,.21.15,1.7,1.7,0,0,1,.23.11.22.22,0,0,1,.07.19c0,.12,0,.2-.14.23a.88.88,0,0,1-.35.06h-1.6a.88.88,0,0,1-.35-.06.24.24,0,0,1-.14-.23.22.22,0,0,1,.07-.19,1,1,0,0,1,.23-.11.43.43,0,0,0,.22-.15.62.62,0,0,0,0-.16c0-.07,0-.14,0-.22v-.18c0-.44,0-.76,0-1v-1c0-.21,0-.53,0-1v-.19c0-.08,0-.15,0-.22a.53.53,0,0,0,0-.16.41.41,0,0,0-.22-.13,1,1,0,0,1-.23-.12s-.07-.1-.07-.2.16-.29.49-.29h1.6a.88.88,0,0,1,.35.06.24.24,0,0,1,.14.23c0,.15-.09.25-.27.32a.39.39,0,0,0-.24.14.41.41,0,0,0-.06.23c0,.1,0,.21,0,.33,0,.43,0,.75,0,1Zm7.39,0L897,464.23s-.06.11-.09.17a.71.71,0,0,1-.11.17.2.2,0,0,1-.14.06.28.28,0,0,1-.13,0l-.1-.1a.57.57,0,0,1-.08-.13.61.61,0,0,1-.05-.12l-1.42-3-.71,2.28a1.16,1.16,0,0,0-.06.34.19.19,0,0,0,0,.13.56.56,0,0,0,.14.1.49.49,0,0,1,.15.12.17.17,0,0,1,0,.15c0,.16-.12.25-.36.25h-1.29a.29.29,0,0,1-.18-.07.24.24,0,0,1-.07-.18.07.07,0,0,1,0,0c0-.06.06-.13.18-.2l.29-.21a.81.81,0,0,0,.18-.35l1-3.28a1.18,1.18,0,0,0,.07-.37.23.23,0,0,0-.06-.16.83.83,0,0,0-.17-.12.62.62,0,0,1-.17-.12.25.25,0,0,1,0-.15.26.26,0,0,1,.12-.21.58.58,0,0,1,.35-.1h1.45c.25,0,.37.09.39.25a.29.29,0,0,1,0,.17.49.49,0,0,1-.15.12l-.14.11a.14.14,0,0,0,0,.13.64.64,0,0,0,.09.29l1,1.92.05.09a.22.22,0,0,0,0,.08.09.09,0,0,0,.08,0s0,0,.07,0a.35.35,0,0,0,.06-.09l0-.09.93-1.91a.6.6,0,0,0,.07-.26.16.16,0,0,0,0-.14.71.71,0,0,0-.17-.11.83.83,0,0,1-.17-.12.24.24,0,0,1-.06-.18.2.2,0,0,1,.12-.19.53.53,0,0,1,.26-.07h1.51a.79.79,0,0,1,.29.05.22.22,0,0,1,.12.2.24.24,0,0,1-.06.18,1.06,1.06,0,0,1-.18.13.7.7,0,0,0-.18.12.21.21,0,0,0-.06.16s0,.08,0,.11,0,.08,0,.14a.68.68,0,0,0,0,.12l.89,3.27a.88.88,0,0,0,.14.32.78.78,0,0,0,.27.18c.17.07.26.17.26.3a.27.27,0,0,1-.1.21.41.41,0,0,1-.25.08h-1.89a.38.38,0,0,1-.24-.08.27.27,0,0,1-.09-.21.31.31,0,0,1,.24-.3c.15,0,.22-.12.22-.23a3.53,3.53,0,0,0-.09-.43l-.5-2Zm5.7,3.27h-1.59a.88.88,0,0,1-.35-.06.24.24,0,0,1-.14-.23c0-.09,0-.15.07-.18l.23-.12c.12-.05.19-.09.22-.15a4,4,0,0,0,.08-1.09v-2.31a2.45,2.45,0,0,0-.06-.67.41.41,0,0,0-.22-.17l-.24-.12a.22.22,0,0,1-.06-.18c0-.22.27-.33.8-.33h.17a14.82,14.82,0,0,1,2.22.12,3.82,3.82,0,0,1,1.11.37,2.55,2.55,0,0,1,.83.73,2,2,0,0,1,.34,1.06,1.46,1.46,0,0,1-.38,1.08,1.81,1.81,0,0,1-.94.49A6.09,6.09,0,0,1,905,463h-.25l-.45,0a.18.18,0,0,0-.15.08.62.62,0,0,0,0,.24v.22c0,.29.08.46.25.51s.29.15.29.28,0,.21-.13.24a1,1,0,0,1-.35,0Zm1.77-3.49a1.38,1.38,0,0,0-.19-.69,1.44,1.44,0,0,0-.52-.52,1.38,1.38,0,0,0-.69-.19.45.45,0,0,0-.32.09.37.37,0,0,0-.12.23c0,.08,0,.22,0,.41,0,.42,0,.72,0,.92a2.7,2.7,0,0,0,.05.64c0,.18.24.26.6.26a1.23,1.23,0,0,0,.87-.32,1.08,1.08,0,0,0,.35-.83Zm8.41,2.36-.72,1.24a.29.29,0,0,1-.25.19.42.42,0,0,1-.27-.13.67.67,0,0,0-.22-.14,2.29,2.29,0,0,0-.44,0h-3.35a.88.88,0,0,1-.35-.06.24.24,0,0,1-.14-.23.21.21,0,0,1,.07-.19l.23-.1a.5.5,0,0,0,.22-.16.62.62,0,0,0,0-.16,1.5,1.5,0,0,0,0-.22.87.87,0,0,1,0-.18c0-.44,0-.76,0-1v-1c0-.19,0-.34,0-.44v-.4c0-.19,0-.34,0-.46a.72.72,0,0,0,0-.23.42.42,0,0,0-.21-.13,1.31,1.31,0,0,1-.24-.12s-.07-.1-.07-.2.17-.29.49-.29h2.64a2.18,2.18,0,0,0,.39,0,.7.7,0,0,0,.28-.12.71.71,0,0,1,.27-.11.3.3,0,0,1,.24.15l.75,1.07a.37.37,0,0,1,.08.21.28.28,0,0,1-.06.18.19.19,0,0,1-.16.08,1,1,0,0,1-.3-.16l-.45-.28a3.3,3.3,0,0,0-.59-.23,3.26,3.26,0,0,0-.86-.11,1.56,1.56,0,0,0-.44.05.3.3,0,0,0-.2.16.74.74,0,0,0-.06.34v.15a2,2,0,0,0,0,.4.32.32,0,0,0,.12.17.46.46,0,0,0,.26.05,1.12,1.12,0,0,0,.29,0,.43.43,0,0,0,.2-.14l.06-.08.07-.08a.28.28,0,0,1,.09-.07.11.11,0,0,1,.08,0,.32.32,0,0,1,.27.17l.69,1a.42.42,0,0,1,.07.15.38.38,0,0,1-.06.22.22.22,0,0,1-.2.1,1,1,0,0,1-.39-.18,3.32,3.32,0,0,0-.5-.28,1.22,1.22,0,0,0-.53-.11c-.3,0-.48.07-.53.21a1.47,1.47,0,0,0,0,.41c0,.17,0,.44,0,.79a1.43,1.43,0,0,0,0,.43.28.28,0,0,0,.17.2,1,1,0,0,0,.4.07h.92a2.62,2.62,0,0,0,.8-.13,2.16,2.16,0,0,0,.59-.29l.39-.28a.38.38,0,0,1,.22-.1.22.22,0,0,1,.17.07.26.26,0,0,1,.07.19.54.54,0,0,1,0,.21Zm5.52-.75.82.93a1,1,0,0,0,.39.31,1.72,1.72,0,0,1,.27.13.25.25,0,0,1,.09.21c0,.2-.13.3-.38.3h-1.88c-.23,0-.35-.09-.36-.26a.41.41,0,0,1,.05-.19.27.27,0,0,1,.14-.12c.14-.05.21-.09.21-.13a.26.26,0,0,0-.13-.22l-.65-.67a3.37,3.37,0,0,1-.52,0,3.84,3.84,0,0,1-.55,0c0,.17,0,.35,0,.54s.06.41.19.44a1.21,1.21,0,0,1,.29.1.24.24,0,0,1,.1.21c0,.2-.14.3-.43.3h-1.65a.85.85,0,0,1-.35-.06.27.27,0,0,1-.08-.41l.24-.12c.11-.05.18-.09.21-.15a3.43,3.43,0,0,0,.09-1.09v-1.47c0-.08,0-.2,0-.36v-.35a2.29,2.29,0,0,0-.08-.82.4.4,0,0,0-.21-.13,1,1,0,0,1-.23-.12.24.24,0,0,1-.07-.2c0-.19.16-.29.49-.29h1.68a8.37,8.37,0,0,1,1.4.11,3.64,3.64,0,0,1,1.15.39,3,3,0,0,1,.59.45,1.89,1.89,0,0,1,.39.59,1.58,1.58,0,0,1,.14.69c0,.73-.44,1.22-1.33,1.46Zm-2.53-2.26v1.1a1.57,1.57,0,0,0,.06.5.4.4,0,0,0,.22.24,1.24,1.24,0,0,0,.49.07,1.66,1.66,0,0,0,.72-.15,1.14,1.14,0,0,0,.51-.43,1.19,1.19,0,0,0,.19-.69,1.48,1.48,0,0,0-.19-.71,1.41,1.41,0,0,0-.52-.51,1.39,1.39,0,0,0-.71-.2.83.83,0,0,0-.6.18.75.75,0,0,0-.18.57v0Zm7.13.84v1c0,.12,0,.3,0,.54s0,.43,0,.58a.94.94,0,0,0,.07.41.36.36,0,0,0,.21.15l.23.11a.22.22,0,0,1,.07.19.22.22,0,0,1-.14.23.88.88,0,0,1-.35.06H923a.85.85,0,0,1-.35-.06c-.09,0-.13-.11-.14-.23a.22.22,0,0,1,.07-.19,1,1,0,0,1,.23-.11.36.36,0,0,0,.21-.15.38.38,0,0,0,0-.16,1.55,1.55,0,0,0,0-.22,1.36,1.36,0,0,0,0-.18c0-.44,0-.76,0-1v-1c0-.21,0-.53,0-1a1.42,1.42,0,0,0,0-.19,1.55,1.55,0,0,0,0-.22.5.5,0,0,0,0-.16.35.35,0,0,0-.21-.13.79.79,0,0,1-.23-.12s-.07-.1-.07-.2.16-.29.49-.29h1.6a.88.88,0,0,1,.35.06.26.26,0,0,1,.14.23c0,.15-.09.25-.28.32a.4.4,0,0,0-.23.14.52.52,0,0,0-.07.23c0,.1,0,.21,0,.33,0,.43,0,.75,0,1Zm7.91,3.3h-1.69c-.28,0-.42-.09-.42-.28a.24.24,0,0,1,.17-.24l.17-.08a.17.17,0,0,0,.07-.1.76.76,0,0,0-.3-.67,1.37,1.37,0,0,0-.77-.2h-.53a1.23,1.23,0,0,0-.72.22.75.75,0,0,0-.29.63c0,.06,0,.1,0,.12a.76.76,0,0,0,.15.1.5.5,0,0,1,.16.11.2.2,0,0,1,.05.14q0,.27-.39.27h-1.35a.38.38,0,0,1-.24-.06.54.54,0,0,1-.12-.23c0-.15.14-.26.41-.35a.63.63,0,0,0,.29-.24,3,3,0,0,0,.25-.44c.07-.16.14-.34.21-.51s.11-.32.14-.42l.23-.52c.11-.23.18-.4.23-.52s.2-.43.41-.86a10.7,10.7,0,0,0,.43-1,1.33,1.33,0,0,1,.16-.32.35.35,0,0,1,.24-.12h.39l.28,0a.51.51,0,0,1,.32.1,1.25,1.25,0,0,1,.22.4l.3.74.31.88.38,1,.37,1,.1.24a2.13,2.13,0,0,0,.12.29.5.5,0,0,0,.11.18.59.59,0,0,0,.22.15,1,1,0,0,1,.25.14.26.26,0,0,1,.08.21.21.21,0,0,1-.12.22.93.93,0,0,1-.32,0Zm-2.93-4.18c-.12.24-.27.56-.44.95a2.58,2.58,0,0,0-.25.77.17.17,0,0,0,.14.17,1.79,1.79,0,0,0,.48,0h.09c.39,0,.59-.08.59-.24a2.26,2.26,0,0,0-.19-.65c-.13-.33-.27-.68-.42-1Zm9.43,3.07-.74,1.19c-.1.13-.19.2-.28.2h0a.34.34,0,0,1-.16-.05.22.22,0,0,1-.09-.07l-.05-.07a.64.64,0,0,0-.44-.1h-2.92a.82.82,0,0,1-.35-.06.24.24,0,0,1-.15-.23.24.24,0,0,1,.07-.19l.23-.1a.45.45,0,0,0,.22-.16.38.38,0,0,0,0-.16,1.5,1.5,0,0,0,0-.22c0-.08,0-.14,0-.18,0-.44,0-.76,0-1v-1.06a6.37,6.37,0,0,0-.08-1.53.49.49,0,0,0-.22-.14l-.23-.11a.29.29,0,0,1-.07-.21c0-.16.15-.25.43-.25h1.79a.6.6,0,0,1,.26.05c.07,0,.1.1.1.2s0,.17-.06.2l-.23.11a.43.43,0,0,0-.22.15.89.89,0,0,0-.07.4v.57c0,.25,0,.43,0,.56v1.3a1.36,1.36,0,0,1,0,.16V463a2.64,2.64,0,0,0,0,.59.3.3,0,0,0,.19.22,1.76,1.76,0,0,0,.55.06,3.59,3.59,0,0,0,.95-.1,2,2,0,0,0,.51-.19l.39-.28a.89.89,0,0,1,.39-.2.35.35,0,0,1,.18,0,.21.21,0,0,1,.08.16.43.43,0,0,1-.08.23Z" transform="translate(-886.44 -412.58)"/></svg>