<svg id="Layer_1" data-name="Layer 1" xmlns="http://www.w3.org/2000/svg" viewBox="0 0 432.76 420.89">
  <defs>
    <style>.cls-1{fill:#fff;}.cls-2{fill:#efefef;}.cls-3{fill:#231f20;}</style>
  </defs>
  <circle class="cls-1" cx="937.79" cy="334.65" r="72.3" transform="translate(-152.37 1085.11) rotate(-80.74)" />
  <circle class="cls-1" cx="699.94" cy="334.65" r="72.3" transform="translate(-396.45 816.98) rotate(-76.63)" />
  <path class="cls-2" d="M742.46,276.28a72.29,72.29,0,0,1-103.24,97.81,72.3,72.3,0,1,0,103.24-97.81Z" transform="translate(-608.94 -121.24)" />
  <path class="cls-2" d="M980.31,276.28a72.29,72.29,0,0,1-103.23,97.81,72.29,72.29,0,1,0,103.23-97.81Z" transform="translate(-608.94 -121.24)" />
  <path class="cls-3" d="M699.94,410.28a75.63,75.63,0,1,1,75.62-75.63A75.72,75.72,0,0,1,699.94,410.28Zm0-144.61a69,69,0,1,0,69,69A69.07,69.07,0,0,0,699.94,265.67Z" transform="translate(-608.94 -121.24)" />
  <path class="cls-3" d="M735.07,367.12a35,35,0,1,1-35-35A35,35,0,0,1,735.07,367.12Z" transform="translate(-608.94 -121.24)" />
  <path class="cls-1" d="M705.77,360.76a14.34,14.34,0,1,1-14.33-14.33A14.34,14.34,0,0,1,705.77,360.76Z" transform="translate(-608.94 -121.24)" />
  <path class="cls-3" d="M937.79,410.28a75.63,75.63,0,1,1,75.63-75.63A75.71,75.71,0,0,1,937.79,410.28Zm0-144.61a69,69,0,1,0,69,69A69.06,69.06,0,0,0,937.79,265.67Z" transform="translate(-608.94 -121.24)" />
  <circle class="cls-3" cx="937.79" cy="367.12" r="35.03" transform="translate(-229.02 1084.34) rotate(-77.74)" />
  <path class="cls-1" d="M943.53,360.76a14.34,14.34,0,1,1-14.34-14.33A14.34,14.34,0,0,1,943.53,360.76Z" transform="translate(-608.94 -121.24)" />
  <path class="cls-3" d="M614.74,189.12C630,199.9,634.61,172.6,669.56,155.9c29.13-13.92,52.07-3.21,54.58-16.13s-25.9-23.17-69.37-5C622.42,148.22,597.07,176.6,614.74,189.12Z" transform="translate(-608.94 -121.24)" />
  <path class="cls-3" d="M1035.64,188.59c-16.17,11.6-21.6-17.35-59.37-34.74-31.5-14.5-56-2.9-58.85-16.6s27.44-24.85,74.39-6C1026.75,145.23,1054.41,175.13,1035.64,188.59Z" transform="translate(-608.94 -121.24)" />
  <path class="cls-3" d="M929.19,523.52a4.74,4.74,0,0,1-4.05-2.27c-.07-.11-7.47-12-23.59-24.22-14.82-11.25-40.3-25.14-77.53-27.37-71.44-4.29-114.13,51.41-114.56,52a4.74,4.74,0,1,1-7.58-5.7c.46-.62,11.66-15.37,32.37-29.66,19.14-13.22,50.35-28.48,90.34-26.08,39.84,2.39,67.17,17.4,83.09,29.58,17.38,13.29,25.23,26,25.56,26.54a4.74,4.74,0,0,1-4,7.21Z" transform="translate(-608.94 -121.24)" />
  <path class="cls-3" d="M689.23,499.7a45.43,45.43,0,0,0-3.43,40.69,2.44,2.44,0,0,0,2.91,1.66,2.39,2.39,0,0,0,1.66-2.92,41,41,0,0,1,3-37c1.62-2.6-2.49-5-4.1-2.4Z" transform="translate(-608.94 -121.24)" />
  <path class="cls-3" d="M936.87,503.43a34.41,34.41,0,0,1,8.72,34.45c-.91,2.92,3.66,4.17,4.57,1.26a39.18,39.18,0,0,0-9.93-39.06c-2.19-2.13-5.55,1.22-3.36,3.35Z" transform="translate(-608.94 -121.24)" />
</svg>