<svg id="Layer_1" data-name="Layer 1" xmlns="http://www.w3.org/2000/svg" viewBox="0 0 659.84 659.91"><defs><style>.cls-1,.cls-2{fill:#f3f3f3;}.cls-2{fill-rule:evenodd;}</style></defs><title>Twitter</title><path class="cls-1" d="M960.55,273.5c173.16,0,313.72,140.41,313.72,313.87,0,173.18-140.56,313.87-313.72,313.87-173.46,0-313.87-140.69-313.87-313.87,0-173.46,140.41-313.87,313.87-313.87m0-16.09c-182,0-330,148-330,330s148.07,330,330,330c181.8,0,329.81-148,329.81-330s-148-330-329.81-330Z" transform="translate(-630.52 -257.41)"/><path class="cls-2" d="M770.55,715.2c29.85,1.9,58.8-2.49,86-14.77a155.7,155.7,0,0,0,34.51-20.77,83,83,0,0,1-35.69-8.93c-18.42-9.36-31.44-24.13-39.34-44-1.76-4.39-1.76-4.39,3.08-4.09,13.15,1.31,22.81,1,30.27-1.9-7.16-2.48-13.9-3.8-19.45-7.46-27.5-15.21-42.12-38.76-44.61-70.36-.3-3.65.74-4.09,4.09-2.48,9.66,5.42,20.19,7.6,32.32,8.77-5.25-4.67-9.79-8.47-13.88-12.58-22.83-24.56-28.23-63.47-13-93.45,2-4.09,2.79-4.09,5.57-.87,38.46,44.31,86.28,71.08,143.91,80.29,5.86,1.17,12.28,1.17,18.29,2.48,4.09.59,4.52-1.31,3.94-4.38a82.49,82.49,0,0,1,41-86.3c31.3-18.29,72-12.58,97.11,12a9.22,9.22,0,0,0,9.08,2.18,153.82,153.82,0,0,0,43.58-17.1,8.18,8.18,0,0,0,3.51-2.2c-5.86,19.6-17.56,34.08-34.81,45.63,15.93-1.45,30.27-6.29,44.47-11.55.28,1.91-1.19,3.07-2.06,4.68a168.83,168.83,0,0,1-34.22,35c-2.48,1.91-3.07,3.52-3.07,6.59,1,60.55-18.29,114.37-56.9,161.17-36.27,42.56-82.64,68.46-137.77,77.24-58.51,9.06-113.51-.59-164.1-31.89A2.88,2.88,0,0,0,770.55,715.2Z" transform="translate(-630.52 -257.41)"/></svg>