<svg id="Layer_1" data-name="Layer 1" xmlns="http://www.w3.org/2000/svg" viewBox="0 0 42.57 21.28">
  <defs>
    <style>.cls-1{fill:#0d0a0a;}</style>
  </defs>
  <path class="cls-1" d="M813.42,516.56h-.18l-.06-.73,0,.73h-.06c-12.19,0-20.37-9-20.72-9.41l-.42-.48.41-.48a31.39,31.39,0,0,1,10.73-8.54,25.67,25.67,0,0,1,9.27-2.35v0h1.74v0a25.47,25.47,0,0,1,9.27,2.35,31.51,31.51,0,0,1,10.74,8.54l.41.48-.43.48c-.34.38-8.53,9.4-20.71,9.41Zm-.14-1.46h.12l0,.73v-.73c10,0,17.34-6.65,19.18-8.47a29.64,29.64,0,0,0-9.79-7.65,23.71,23.71,0,0,0-9.4-2.24h-.28a23.67,23.67,0,0,0-9.39,2.24,29.64,29.64,0,0,0-9.79,7.65c1.83,1.82,9.2,8.46,19.18,8.47Z" transform="translate(-792 -495.28)" />
  <path class="cls-1" d="M813.23,516.33a10.41,10.41,0,1,1,10.41-10.41A10.41,10.41,0,0,1,813.23,516.33Zm0-19.35a8.94,8.94,0,1,0,8.95,8.94A8.95,8.95,0,0,0,813.23,497Z" transform="translate(-792 -495.28)" />
  <path class="cls-1" d="M817.45,505.92a4.22,4.22,0,1,1-4.22-4.22A4.22,4.22,0,0,1,817.45,505.92Z" transform="translate(-792 -495.28)" />
</svg>