@import "src/assets/styles/global/main";<svg id="Layer_1" data-name="Layer 1" xmlns="http://www.w3.org/2000/svg" viewBox="0 0 278 50">
  <defs>
    <style>.clsGoogle-1{fill:#e94435;}.cls-2{font-size:3rem;font-family:Sans-Regular,Sans;}.cls-2,.cls-5{fill:#fff;}.cls-3{letter-spacing:0em;}.cls-4{letter-spacing:-0.01em;}.cls-6{fill:#f8bb15;}.cls-7{fill:#547dbe;}.cls-8{fill:#34a751;}</style>
  </defs>
  <rect class="clsGoogle-1" width="278" height="50px" rx="25" />
  <text class="cls-2" transform="translate(89.94 34.24)">Google</text>
  <circle class="cls-5" cx="26.06" cy="24.98" r="19.97" />
  <path class="cls-5" d="M796.53,533.13a14.68,14.68,0,0,0-8.3,7.27,14.48,14.48,0,0,0-1.28,3.68,14.66,14.66,0,0,0,5.26,14.36,14.45,14.45,0,0,0,5.32,2.68,15.6,15.6,0,0,0,7.5.08,12.94,12.94,0,0,0,9.71-9.2,17.15,17.15,0,0,0,.37-7.77H801.32v5.71h8a6.9,6.9,0,0,1-2.94,4.53,8.39,8.39,0,0,1-3.22,1.27,9.58,9.58,0,0,1-3.5,0,8.48,8.48,0,0,1-3.26-1.41,9,9,0,0,1-3.36-4.5,8.83,8.83,0,0,1,0-5.7,9.09,9.09,0,0,1,2.13-3.45,8.62,8.62,0,0,1,8.68-2.26,7.94,7.94,0,0,1,3.15,1.86l2.7-2.69c.47-.49,1-1,1.43-1.44a14.1,14.1,0,0,0-4.72-2.92A14.79,14.79,0,0,0,796.53,533.13Z" transform="translate(-774.97 -521.99)" />
  <path class="clsGoogle-1" d="M796.53,533.13a14.79,14.79,0,0,1,9.87.09,14.1,14.1,0,0,1,4.72,2.92c-.46.49-1,1-1.43,1.44l-2.7,2.69a7.94,7.94,0,0,0-3.15-1.86,8.62,8.62,0,0,0-8.68,2.26,9.09,9.09,0,0,0-2.13,3.45l-4.8-3.72A14.68,14.68,0,0,1,796.53,533.13Z" transform="translate(-774.97 -521.99)" />
  <path class="cls-6" d="M787,544.08a14.48,14.48,0,0,1,1.28-3.68l4.8,3.72a8.83,8.83,0,0,0,0,5.7l-4.8,3.73A14.7,14.7,0,0,1,787,544.08Z" transform="translate(-774.97 -521.99)" />
  <path class="cls-7" d="M801.32,544.23h13.79a17.15,17.15,0,0,1-.37,7.77,13.32,13.32,0,0,1-3.71,6.08l-4.66-3.61a6.9,6.9,0,0,0,2.94-4.53h-8Z" transform="translate(-774.97 -521.99)" />
  <path class="cls-8" d="M788.23,553.55l4.8-3.73a9,9,0,0,0,3.36,4.5,8.48,8.48,0,0,0,3.26,1.41,9.58,9.58,0,0,0,3.5,0,8.39,8.39,0,0,0,3.22-1.27l4.66,3.61a13.23,13.23,0,0,1-6,3.12,15.6,15.6,0,0,1-7.5-.08,14.45,14.45,0,0,1-5.32-2.68A14.72,14.72,0,0,1,788.23,553.55Z" transform="translate(-774.97 -521.99)" />
</svg>